<svg id="Layer_1" data-name="Layer 1" xmlns="http://www.w3.org/2000/svg" xmlns:xlink="http://www.w3.org/1999/xlink" width="40" height="40" viewBox="0 0 40 40"><defs><style>.cls-1{fill-opacity:0.17;}.cls-2{fill:#fff;}.cls-3{fill-opacity:0.27;}.cls-4{fill-opacity:0.55;}.cls-5{fill-opacity:0.37;}.cls-6{fill-opacity:0.24;}.cls-7{fill-opacity:0.47;}.cls-8{fill-opacity:0.67;}.cls-9{fill-opacity:0.76;}.cls-10{fill-opacity:0.68;}.cls-11{fill-opacity:0.72;}.cls-12{fill:gray;}.cls-13{mask:url(#mask);}.cls-14{mask:url(#mask-2);}.cls-15{mask:url(#mask-3);}.cls-16{mask:url(#mask-5);}.cls-17{mask:url(#mask-6);}.cls-18{mask:url(#mask-8);}.cls-19{mask:url(#mask-9);}.cls-20{mask:url(#mask-14);}.cls-21{mask:url(#mask-15);}.cls-22{mask:url(#mask-16);}.cls-23{mask:url(#mask-20);}.cls-24{mask:url(#mask-21);}.cls-25{mask:url(#mask-23);}.cls-26{mask:url(#mask-24);}.cls-27{mask:url(#mask-26);}.cls-28{mask:url(#mask-27);}.cls-29{mask:url(#mask-35);}.cls-30{mask:url(#mask-36);}.cls-31{mask:url(#mask-47);}.cls-32{mask:url(#mask-48);}.cls-33{mask:url(#mask-52);}.cls-34{mask:url(#mask-53);}.cls-35{mask:url(#mask-54);}.cls-36{fill:#030303;}.cls-37{mask:url(#mask-56);}.cls-38{mask:url(#mask-57);}.cls-39{mask:url(#mask-58);}.cls-40{mask:url(#mask-59);}.cls-41{mask:url(#mask-60);}.cls-42{mask:url(#mask-62);}.cls-43{mask:url(#mask-63);}.cls-44{mask:url(#mask-65);}.cls-45{mask:url(#mask-66);}.cls-46{mask:url(#mask-67);}.cls-47{fill:#dfdfdf;}.cls-48{mask:url(#mask-72);}.cls-49{mask:url(#mask-74);}.cls-50{mask:url(#mask-75);}.cls-51{mask:url(#mask-80);}.cls-52{mask:url(#mask-81);}.cls-53{mask:url(#mask-83);}.cls-54{mask:url(#mask-84);}.cls-55{mask:url(#mask-86);}.cls-56{mask:url(#mask-87);}.cls-57{mask:url(#mask-88);}.cls-58{mask:url(#mask-89);}.cls-59{mask:url(#mask-90);}.cls-60{mask:url(#mask-91);}.cls-61{mask:url(#mask-92);}.cls-62{mask:url(#mask-93);}.cls-63{mask:url(#mask-94);}.cls-64{mask:url(#mask-95);}.cls-65{mask:url(#mask-96);}.cls-66{mask:url(#mask-100);}.cls-67{mask:url(#mask-101);}.cls-68{mask:url(#mask-102);}.cls-69{mask:url(#mask-104);}.cls-70{mask:url(#mask-105);}.cls-71{mask:url(#mask-106);}.cls-72{mask:url(#mask-107);}.cls-73{mask:url(#mask-108);}</style><mask id="mask" x="-24.61" y="-16.22" width="89.22" height="85.55" maskUnits="userSpaceOnUse"><g id="mask0_558_2120" data-name="mask0 558 2120"><path class="cls-1" d="M64.61-16.22H-24.61V69.33H64.61Z"/></g></mask><mask id="mask-2" x="0.47" y="10.11" width="39.06" height="19.77" maskUnits="userSpaceOnUse"><g id="mask1_558_2120" data-name="mask1 558 2120"><path class="cls-2" d="M39.53,10.11H.47V29.88H39.53Z"/></g></mask><mask id="mask-3" x="0.48" y="10.21" width="38.97" height="19.57" maskUnits="userSpaceOnUse"><g id="mask2_558_2120" data-name="mask2 558 2120"><path class="cls-2" d="M.48,10.21h39V29.78H.48Z"/></g></mask><mask id="mask-5" x="31.6" y="23.8" width="0.99" height="0.38" maskUnits="userSpaceOnUse"><g id="mask4_558_2120" data-name="mask4 558 2120"><path class="cls-2" d="M32.59,23.8h-1v.38h1Z"/></g></mask><mask id="mask-6" x="31.65" y="23.85" width="0.75" height="0.27" maskUnits="userSpaceOnUse"><g id="mask5_558_2120" data-name="mask5 558 2120"><path class="cls-2" d="M31.65,23.85h.74v.28h-.74Z"/></g></mask><mask id="mask-8" x="0.47" y="10.11" width="37.28" height="19.77" maskUnits="userSpaceOnUse"><g id="mask7_558_2120" data-name="mask7 558 2120"><path class="cls-2" d="M37.75,10.11H.47V29.88H37.75Z"/></g></mask><mask id="mask-9" x="0.48" y="10.21" width="37.26" height="19.57" maskUnits="userSpaceOnUse"><g id="mask8_558_2120" data-name="mask8 558 2120"><path class="cls-2" d="M.48,10.21H37.74V29.78H.48Z"/></g></mask><mask id="mask-14" x="1.26" y="10.11" width="36.48" height="19.77" maskUnits="userSpaceOnUse"><g id="mask13_558_2120" data-name="mask13 558 2120"><path class="cls-2" d="M37.75,10.11H1.26V29.88H37.75Z"/></g></mask><mask id="mask-15" x="1.33" y="10.21" width="36.4" height="19.57" maskUnits="userSpaceOnUse"><g id="mask14_558_2120" data-name="mask14 558 2120"><path class="cls-2" d="M1.33,10.21H37.74V29.78H1.33Z"/></g></mask><mask id="mask-16" x="-24.61" y="-16.22" width="89.22" height="85.55" maskUnits="userSpaceOnUse"><g id="mask15_558_2120" data-name="mask15 558 2120"><path class="cls-5" d="M64.61-16.22H-24.61V69.33H64.61Z"/></g></mask><mask id="mask-20" x="23.47" y="10.11" width="14.28" height="10.84" maskUnits="userSpaceOnUse"><g id="mask19_558_2120" data-name="mask19 558 2120"><path class="cls-2" d="M37.75,10.11H23.47V21H37.75Z"/></g></mask><mask id="mask-21" x="23.51" y="10.21" width="14.23" height="10.72" maskUnits="userSpaceOnUse"><g id="mask20_558_2120" data-name="mask20 558 2120"><path class="cls-2" d="M23.51,10.21H37.74V20.93H23.51Z"/></g></mask><mask id="mask-23" x="3.25" y="10.11" width="25.38" height="19.58" maskUnits="userSpaceOnUse"><g id="mask22_558_2120" data-name="mask22 558 2120"><path class="cls-2" d="M28.62,10.11H3.25V29.69H28.62Z"/></g></mask><mask id="mask-24" x="3.29" y="10.21" width="25.22" height="19.48" maskUnits="userSpaceOnUse"><g id="mask23_558_2120" data-name="mask23 558 2120"><path class="cls-2" d="M3.29,10.21H28.51V29.69H3.29Z"/></g></mask><mask id="mask-26" x="2.85" y="19.24" width="14.08" height="10.65" maskUnits="userSpaceOnUse"><g id="mask25_558_2120" data-name="mask25 558 2120"><path class="cls-2" d="M16.93,19.24H2.85V29.88H16.93Z"/></g></mask><mask id="mask-27" x="2.95" y="19.43" width="13.78" height="10.36" maskUnits="userSpaceOnUse"><g id="mask26_558_2120" data-name="mask26 558 2120"><path class="cls-2" d="M3,19.43H16.73V29.78H3Z"/></g></mask><mask id="mask-35" x="4.44" y="10.11" width="23" height="19.58" maskUnits="userSpaceOnUse"><g id="mask34_558_2120" data-name="mask34 558 2120"><path class="cls-2" d="M27.44,10.11h-23V29.69h23Z"/></g></mask><mask id="mask-36" x="4.57" y="10.21" width="22.84" height="19.29" maskUnits="userSpaceOnUse"><g id="mask35_558_2120" data-name="mask35 558 2120"><path class="cls-2" d="M4.57,10.21H27.41V29.5H4.57Z"/></g></mask><mask id="mask-47" x="9.99" y="10.49" width="14.87" height="17.3" maskUnits="userSpaceOnUse"><g id="mask46_558_2120" data-name="mask46 558 2120"><path class="cls-2" d="M24.86,10.49H10v17.3H24.86Z"/></g></mask><mask id="mask-48" x="10.14" y="10.62" width="14.66" height="17.02" maskUnits="userSpaceOnUse"><g id="mask47_558_2120" data-name="mask47 558 2120"><path class="cls-2" d="M10.14,10.62H24.79v17H10.14Z"/></g></mask><mask id="mask-52" x="-24.61" y="-16.22" width="89.22" height="85.55" maskUnits="userSpaceOnUse"><g id="mask51_558_2120" data-name="mask51 558 2120"><path class="cls-6" d="M64.61-16.22H-24.61V69.33H64.61Z"/></g></mask><mask id="mask-53" x="19.7" y="20.38" width="3.57" height="4.94" maskUnits="userSpaceOnUse"><g id="mask52_558_2120" data-name="mask52 558 2120"><path class="cls-2" d="M23.27,20.38H19.7v4.94h3.57Z"/></g></mask><mask id="mask-54" x="19.75" y="20.38" width="3.38" height="4.88" maskUnits="userSpaceOnUse"><g id="mask53_558_2120" data-name="mask53 558 2120"><path class="cls-2" d="M19.75,20.38h3.38v4.89H19.75Z"/></g></mask><mask id="mask-56" x="19.7" y="20.38" width="3.17" height="4.37" maskUnits="userSpaceOnUse"><g id="mask55_558_2120" data-name="mask55 558 2120"><path class="cls-2" d="M22.87,20.38H19.7v4.37h3.17Z"/></g></mask><mask id="mask-57" x="19.75" y="20.38" width="2.95" height="4.33" maskUnits="userSpaceOnUse"><g id="mask56_558_2120" data-name="mask56 558 2120"><path class="cls-2" d="M19.75,20.38H22.7v4.34H19.75Z"/></g></mask><mask id="mask-58" x="-24.61" y="-16.22" width="89.22" height="85.55" maskUnits="userSpaceOnUse"><g id="mask57_558_2120" data-name="mask57 558 2120"><path class="cls-7" d="M64.61-16.22H-24.61V69.33H64.61Z"/></g></mask><mask id="mask-59" x="4.44" y="15.24" width="4.76" height="8.17" maskUnits="userSpaceOnUse"><g id="mask58_558_2120" data-name="mask58 558 2120"><path class="cls-2" d="M9.19,15.24H4.44v8.18H9.19Z"/></g></mask><mask id="mask-60" x="4.57" y="15.32" width="4.62" height="7.98" maskUnits="userSpaceOnUse"><g id="mask59_558_2120" data-name="mask59 558 2120"><path class="cls-2" d="M4.57,15.32H9.19v8H4.57Z"/></g></mask><mask id="mask-62" x="1.46" y="10.11" width="37.67" height="19.77" maskUnits="userSpaceOnUse"><g id="mask61_558_2120" data-name="mask61 558 2120"><path class="cls-2" d="M39.13,10.11H1.46V29.88H39.13Z"/></g></mask><mask id="mask-63" x="1.57" y="10.21" width="37.45" height="19.57" maskUnits="userSpaceOnUse"><g id="mask62_558_2120" data-name="mask62 558 2120"><path class="cls-2" d="M1.57,10.21H39V29.78H1.57Z"/></g></mask><mask id="mask-65" x="24.66" y="21.33" width="9.32" height="4.94" maskUnits="userSpaceOnUse"><g id="mask64_558_2120" data-name="mask64 558 2120"><path class="cls-2" d="M34,21.33H24.66v4.94H34Z"/></g></mask><mask id="mask-66" x="24.86" y="21.39" width="9.12" height="4.88" maskUnits="userSpaceOnUse"><g id="mask65_558_2120" data-name="mask65 558 2120"><path class="cls-2" d="M24.86,21.39H34v4.88H24.86Z"/></g></mask><mask id="mask-67" x="-24.61" y="-16.22" width="89.22" height="85.55" maskUnits="userSpaceOnUse"><g id="mask66_558_2120" data-name="mask66 558 2120"><path class="cls-8" d="M64.61-16.22H-24.61V69.33H64.61Z"/></g></mask><mask id="mask-72" x="1.62" y="10.21" width="37.4" height="19.57" maskUnits="userSpaceOnUse"><g id="mask71_558_2120" data-name="mask71 558 2120"><path class="cls-2" d="M1.62,10.21H39V29.78H1.62Z"/></g></mask><mask id="mask-74" x="6.81" y="10.11" width="32.32" height="19.77" maskUnits="userSpaceOnUse"><g id="mask73_558_2120" data-name="mask73 558 2120"><path class="cls-2" d="M39.13,10.11H6.81V29.88H39.13Z"/></g></mask><mask id="mask-75" x="6.85" y="10.21" width="32.17" height="19.57" maskUnits="userSpaceOnUse"><g id="mask74_558_2120" data-name="mask74 558 2120"><path class="cls-2" d="M6.85,10.21H39V29.78H6.85Z"/></g></mask><mask id="mask-80" x="13.16" y="10.11" width="24.39" height="19.39" maskUnits="userSpaceOnUse"><g id="mask79_558_2120" data-name="mask79 558 2120"><path class="cls-2" d="M37.55,10.11H13.16V29.5H37.55Z"/></g></mask><mask id="mask-81" x="13.28" y="10.21" width="24.27" height="19.1" maskUnits="userSpaceOnUse"><g id="mask80_558_2120" data-name="mask80 558 2120"><path class="cls-2" d="M13.28,10.21H37.55v19.1H13.28Z"/></g></mask><mask id="mask-83" x="15.94" y="10.11" width="18.44" height="18.06" maskUnits="userSpaceOnUse"><g id="mask82_558_2120" data-name="mask82 558 2120"><path class="cls-2" d="M34.37,10.11H15.94V28.17H34.37Z"/></g></mask><mask id="mask-84" x="15.99" y="10.21" width="18.37" height="17.84" maskUnits="userSpaceOnUse"><g id="mask83_558_2120" data-name="mask83 558 2120"><path class="cls-2" d="M16,10.21H34.36V28.05H16Z"/></g></mask><mask id="mask-86" x="19.9" y="10.11" width="11.7" height="13.88" maskUnits="userSpaceOnUse"><g id="mask85_558_2120" data-name="mask85 558 2120"><path class="cls-2" d="M31.6,10.11H19.9V24H31.6Z"/></g></mask><mask id="mask-87" x="20.1" y="10.21" width="11.4" height="13.69" maskUnits="userSpaceOnUse"><g id="mask86_558_2120" data-name="mask86 558 2120"><path class="cls-2" d="M20.1,10.21H31.5V23.9H20.1Z"/></g></mask><mask id="mask-88" x="-24.61" y="-16.22" width="89.22" height="85.55" maskUnits="userSpaceOnUse"><g id="mask87_558_2120" data-name="mask87 558 2120"><path class="cls-9" d="M64.61-16.22H-24.61V69.33H64.61Z"/></g></mask><mask id="mask-89" x="22.87" y="12.77" width="12.69" height="7.03" maskUnits="userSpaceOnUse"><g id="mask88_558_2120" data-name="mask88 558 2120"><path class="cls-2" d="M35.56,12.77H22.87v7H35.56Z"/></g></mask><mask id="mask-90" x="22.99" y="12.86" width="12.47" height="6.89" maskUnits="userSpaceOnUse"><g id="mask89_558_2120" data-name="mask89 558 2120"><path class="cls-2" d="M23,12.86H35.45v6.89H23Z"/></g></mask><mask id="mask-91" x="-24.61" y="-16.22" width="89.22" height="85.55" maskUnits="userSpaceOnUse"><g id="mask90_558_2120" data-name="mask90 558 2120"><path class="cls-10" d="M64.61-16.22H-24.61V69.33H64.61Z"/></g></mask><mask id="mask-92" x="13.75" y="20.57" width="5.75" height="8.55" maskUnits="userSpaceOnUse"><g id="mask91_558_2120" data-name="mask91 558 2120"><path class="cls-2" d="M19.5,20.57H13.75v8.55H19.5Z"/></g></mask><mask id="mask-93" x="13.8" y="20.76" width="5.62" height="8.21" maskUnits="userSpaceOnUse"><g id="mask92_558_2120" data-name="mask92 558 2120"><path class="cls-2" d="M13.8,20.76h5.62V29H13.8Z"/></g></mask><mask id="mask-94" x="-24.61" y="-16.22" width="89.22" height="85.55" maskUnits="userSpaceOnUse"><g id="mask93_558_2120" data-name="mask93 558 2120"><path class="cls-3" d="M64.61-16.22H-24.61V69.33H64.61Z"/></g></mask><mask id="mask-95" x="21.69" y="10.3" width="16.85" height="6.08" maskUnits="userSpaceOnUse"><g id="mask94_558_2120" data-name="mask94 558 2120"><path class="cls-2" d="M38.54,10.3H21.69v6.09H38.54Z"/></g></mask><mask id="mask-96" x="21.8" y="10.49" width="16.61" height="5.88" maskUnits="userSpaceOnUse"><g id="mask95_558_2120" data-name="mask95 558 2120"><path class="cls-2" d="M21.8,10.49H38.4v5.88H21.8Z"/></g></mask><mask id="mask-100" x="-24.61" y="-16.22" width="89.22" height="85.55" maskUnits="userSpaceOnUse"><g id="mask99_558_2120" data-name="mask99 558 2120"><path class="cls-11" d="M64.61-16.22H-24.61V69.33H64.61Z"/></g></mask><mask id="mask-101" x="24.86" y="10.68" width="11.9" height="3.04" maskUnits="userSpaceOnUse"><g id="mask100_558_2120" data-name="mask100 558 2120"><path class="cls-2" d="M36.75,10.68H24.86v3H36.75Z"/></g></mask><mask id="mask-102" x="24.94" y="10.76" width="11.75" height="2.87" maskUnits="userSpaceOnUse"><g id="mask101_558_2120" data-name="mask101 558 2120"><path class="cls-2" d="M24.94,10.76H36.69v2.87H24.94Z"/></g></mask><mask id="mask-104" x="1.66" y="10.49" width="16.65" height="6.08" maskUnits="userSpaceOnUse"><g id="mask103_558_2120" data-name="mask103 558 2120"><path class="cls-2" d="M18.31,10.49H1.66v6.09H18.31Z"/></g></mask><mask id="mask-105" x="1.67" y="10.62" width="16.56" height="5.89" maskUnits="userSpaceOnUse"><g id="mask104_558_2120" data-name="mask104 558 2120"><path class="cls-2" d="M1.67,10.62H18.23v5.89H1.67Z"/></g></mask><mask id="mask-106" x="-24.61" y="-16.22" width="89.22" height="85.55" maskUnits="userSpaceOnUse"><g id="mask105_558_2120" data-name="mask105 558 2120"><path class="cls-4" d="M64.61-16.22H-24.61V69.33H64.61Z"/></g></mask><mask id="mask-107" x="3.25" y="10.87" width="11.9" height="3.04" maskUnits="userSpaceOnUse"><g id="mask106_558_2120" data-name="mask106 558 2120"><path class="cls-2" d="M15.14,10.87H3.25v3H15.14Z"/></g></mask><mask id="mask-108" x="3.38" y="10.9" width="11.75" height="2.87" maskUnits="userSpaceOnUse"><g id="mask107_558_2120" data-name="mask107 558 2120"><path class="cls-2" d="M3.38,10.9H15.13v2.87H3.38Z"/></g></mask></defs><path class="cls-12" d="M39.47,19.12a9.63,9.63,0,0,0-4.24-7.45l-.1-.06a9.19,9.19,0,0,0-5.93-1.28,10.64,10.64,0,0,0-5.81,3.09A25.71,25.71,0,0,0,20,17.74h0l-.39-.59L19.52,17a23.8,23.8,0,0,0-2.91-3.59,10.64,10.64,0,0,0-5.81-3.09,9.19,9.19,0,0,0-5.93,1.28l-.1.06A9.63,9.63,0,0,0,.53,19.12a10.93,10.93,0,0,0,.4,3.59A10.08,10.08,0,0,0,5,28.13a9.91,9.91,0,0,0,7,1.48A10.94,10.94,0,0,0,18.34,26c.49-.6,1.07-1.3,1.66-2,.59.68,1.17,1.38,1.66,2A10.94,10.94,0,0,0,28,29.61a9.91,9.91,0,0,0,7-1.48,10.08,10.08,0,0,0,4.09-5.42A10.93,10.93,0,0,0,39.47,19.12ZM17.56,20.7c-.7.92-2.08,2.63-2.5,3a5.54,5.54,0,0,1-4.73,1.19,5.79,5.79,0,0,1-3.94-2.83,4.85,4.85,0,0,1-.28-4.35A4.17,4.17,0,0,1,9.77,15.3a6.45,6.45,0,0,1,3.71,1.49,20.18,20.18,0,0,1,4.08,3.91Zm16.06,1.38a5.83,5.83,0,0,1-3.95,2.83,5.54,5.54,0,0,1-4.73-1.19,38.73,38.73,0,0,1-2.49-3h0a19.87,19.87,0,0,1,4.07-3.91,6.45,6.45,0,0,1,3.71-1.49,4.17,4.17,0,0,1,3.66,2.43A4.88,4.88,0,0,1,33.62,22.08Z"/><g class="cls-13"><g class="cls-14"><g class="cls-15"><path class="cls-2" d="M38,24a9.66,9.66,0,0,1-1.45,1.55,8.67,8.67,0,0,1-1.77,1.15,8,8,0,0,1-2,.68,11,11,0,0,1-1.27.14,8.09,8.09,0,0,1-1.3-.15,8.72,8.72,0,0,1-2-.64,3.64,3.64,0,0,1-.73-.39,6.14,6.14,0,0,1-.63-.48,1.56,1.56,0,0,1-.64-1.26v-.06a4.55,4.55,0,0,1-1.21-.8,38.73,38.73,0,0,1-2.49-3h0a19.87,19.87,0,0,1,4.07-3.91,6.45,6.45,0,0,1,3.71-1.49,4.17,4.17,0,0,1,3.66,2.43,4.88,4.88,0,0,1-.27,4.35,5.85,5.85,0,0,1-1.95,2h0a6.63,6.63,0,0,0,1.06-.28,6,6,0,0,0,.95-.54,6.87,6.87,0,0,0,1-.92,8.51,8.51,0,0,0,.92-1.53,9.23,9.23,0,0,0,.54-2,14.33,14.33,0,0,0,.11-1.6c0-.31,0-.61,0-.92s0-.31,0-.47a2.38,2.38,0,0,1,0-.46,1.4,1.4,0,0,1,.42-1,1.63,1.63,0,0,1,.64-.36A1.13,1.13,0,0,1,37.7,14a8.33,8.33,0,0,0-2.47-2.35l-.1-.06a9.19,9.19,0,0,0-5.93-1.28,10.64,10.64,0,0,0-5.81,3.09A25.71,25.71,0,0,0,20,17.74h0l-.39-.59L19.52,17a23.8,23.8,0,0,0-2.91-3.59,10.64,10.64,0,0,0-5.81-3.09,9.19,9.19,0,0,0-5.93,1.28l-.1.06A9.63,9.63,0,0,0,.53,19.12a9,9,0,0,0,.07,2,5.66,5.66,0,0,1,.27-.79,8.1,8.1,0,0,1,.85-1.59,7.27,7.27,0,0,1,1.17-1.31,7.8,7.8,0,0,1,1.46-1,8.07,8.07,0,0,1,3.37-.95,6.26,6.26,0,0,1,1,0,3.59,3.59,0,0,1,1.08-.17,6.45,6.45,0,0,1,3.71,1.49,20.18,20.18,0,0,1,4.08,3.91h0c-.7.92-2.08,2.63-2.5,3a5.54,5.54,0,0,1-4.73,1.19,5.79,5.79,0,0,1-3.94-2.83,5.08,5.08,0,0,1-.67-2.65,7.11,7.11,0,0,0-.74.71,8.23,8.23,0,0,0-.69,1.14,8.76,8.76,0,0,0-.5,1.82c0,.3-.07.6-.08.9s0,.75,0,1.12a1.45,1.45,0,0,1-.43,1,1.29,1.29,0,0,1-.3.22A9.31,9.31,0,0,0,5,28.13a9.91,9.91,0,0,0,7,1.48A10.94,10.94,0,0,0,18.34,26c.49-.6,1.07-1.3,1.66-2,.59.68,1.17,1.38,1.66,2A10.94,10.94,0,0,0,28,29.61a9.91,9.91,0,0,0,7-1.48,10.08,10.08,0,0,0,4.09-5.42,10.49,10.49,0,0,0,.37-1.93A8.15,8.15,0,0,1,38,24Z"/></g></g></g><g class="cls-13"><g class="cls-16"><g class="cls-17"><path class="cls-2" d="M32.36,24,32,23.9l-.31.22h0C31.93,24.07,32.14,24,32.36,24Z"/></g></g></g><g class="cls-13"><g class="cls-18"><g class="cls-19"><path class="cls-2" d="M35.23,27.34a9.8,9.8,0,0,1-2.51.55,7.22,7.22,0,0,1-1,0,11.15,11.15,0,0,1-1.41-.21,7.5,7.5,0,0,1-.95-.3A9.83,9.83,0,0,1,28,26.81,8.49,8.49,0,0,1,26.89,26a4.93,4.93,0,0,1-.69-.68,6.93,6.93,0,0,1-.8-1.09L25.28,24l-.34-.28a38.73,38.73,0,0,1-2.49-3h0a19.87,19.87,0,0,1,4.07-3.91,6.45,6.45,0,0,1,3.71-1.49,4.17,4.17,0,0,1,3.66,2.43,4.67,4.67,0,0,1,.22,3.15c.32,0,.65,0,1,0a4.92,4.92,0,0,0,.55-.14,8.76,8.76,0,0,0,.5-1.87,14.33,14.33,0,0,0,.11-1.6c0-.31,0-.61,0-.92s0-.31,0-.47a2.38,2.38,0,0,1,0-.46,1.4,1.4,0,0,1,.42-1,1.63,1.63,0,0,1,.64-.36A1.13,1.13,0,0,1,37.7,14a8.33,8.33,0,0,0-2.47-2.35l-.1-.06a9.19,9.19,0,0,0-5.93-1.28,10.64,10.64,0,0,0-5.81,3.09A25.71,25.71,0,0,0,20,17.74h0l-.39-.59-.1-.14a23.14,23.14,0,0,0-2.9-3.59,10.64,10.64,0,0,0-5.81-3.09,9.19,9.19,0,0,0-5.93,1.28l-.1.06A9.63,9.63,0,0,0,.53,19.12a2.46,2.46,0,0,0,0,.28,7.94,7.94,0,0,1,1-1.5,7.51,7.51,0,0,1,1.06-1A9.33,9.33,0,0,1,4.3,15.73,8.5,8.5,0,0,1,6.38,15a9.85,9.85,0,0,1,1.32-.14A5.76,5.76,0,0,1,8.8,15a5.21,5.21,0,0,1,1,.2l.47.17a7.12,7.12,0,0,1,3.18,1.46,20.18,20.18,0,0,1,4.08,3.91h0c-.7.92-2.08,2.63-2.5,3a5.54,5.54,0,0,1-4.73,1.19,5.79,5.79,0,0,1-3.94-2.83,5.08,5.08,0,0,1-.67-2.65,7.11,7.11,0,0,0-.74.71,8.23,8.23,0,0,0-.69,1.14,8.76,8.76,0,0,0-.5,1.82c0,.3-.07.6-.08.9s0,.75,0,1.12a1.45,1.45,0,0,1-.43,1,1.29,1.29,0,0,1-.3.22A9.31,9.31,0,0,0,5,28.13a9.91,9.91,0,0,0,7,1.48A10.94,10.94,0,0,0,18.34,26c.49-.6,1.07-1.3,1.66-2,.59.68,1.17,1.38,1.66,2A10.94,10.94,0,0,0,28,29.61a9.91,9.91,0,0,0,7-1.48,9.48,9.48,0,0,0,1.82-1.52A11.19,11.19,0,0,1,35.23,27.34Z"/></g></g></g><g class="cls-13"><g class="cls-16"><g class="cls-17"><path class="cls-2" d="M32.36,24,32,23.9l-.31.22h0C31.93,24.07,32.14,24,32.36,24Z"/></g></g></g><g class="cls-13"><g class="cls-20"><g class="cls-21"><path class="cls-2" d="M31.74,29.32a11.79,11.79,0,0,1-4.43-2.18,10.9,10.9,0,0,1-1.49-1.39,11.8,11.8,0,0,1-2.14-3.48c-.45-.55-.91-1.14-1.23-1.56h0a19.87,19.87,0,0,1,4.07-3.91,6.45,6.45,0,0,1,3.71-1.49,4.17,4.17,0,0,1,3.66,2.43,4.67,4.67,0,0,1,.22,3.15c.32,0,.65,0,1,0a4.92,4.92,0,0,0,.55-.14,8.76,8.76,0,0,0,.5-1.87,14.33,14.33,0,0,0,.11-1.6c0-.31,0-.61,0-.92s0-.31,0-.47a2.38,2.38,0,0,1,0-.46,1.4,1.4,0,0,1,.42-1,1.63,1.63,0,0,1,.64-.36A1.13,1.13,0,0,1,37.7,14a8.33,8.33,0,0,0-2.47-2.35l-.1-.06a9.19,9.19,0,0,0-5.93-1.28,10.64,10.64,0,0,0-5.81,3.09A25.71,25.71,0,0,0,20,17.74h0l-.39-.59-.1-.14a23.14,23.14,0,0,0-2.9-3.59,10.64,10.64,0,0,0-5.81-3.09,9.19,9.19,0,0,0-5.93,1.28l-.1.06a8.52,8.52,0,0,0-3.38,4l.14-.1A7.56,7.56,0,0,1,2.6,15a11,11,0,0,1,1.57-.59,12.41,12.41,0,0,1,1.7-.32A10.64,10.64,0,0,1,7.13,14a12.54,12.54,0,0,1,1.72.18,8.49,8.49,0,0,1,1.23.3,9.06,9.06,0,0,1,2.55,1.26,11.71,11.71,0,0,1,1.22,1,11.23,11.23,0,0,1,1,1.11,20.1,20.1,0,0,1,2.75,2.86h0c-.27.36-.65.84-1,1.31a2,2,0,0,1,0,.35c0,.32-.08.64-.13,1a1.2,1.2,0,0,1-.29.53,1.3,1.3,0,0,1-.46.41,2,2,0,0,1-.83.21,1.51,1.51,0,0,1-.63-.12,5.89,5.89,0,0,1-3.86.56,5.83,5.83,0,0,1-3.95-2.83,5.17,5.17,0,0,1-.66-2.65,7.11,7.11,0,0,0-.74.71,7.36,7.36,0,0,0-.69,1.14,8.76,8.76,0,0,0-.5,1.82c0,.3-.07.6-.08.9s0,.75,0,1.12a1.45,1.45,0,0,1-.43,1,1.29,1.29,0,0,1-.3.22A9.31,9.31,0,0,0,5,28.13a9.91,9.91,0,0,0,7,1.48A10.94,10.94,0,0,0,18.34,26c.49-.6,1.07-1.3,1.66-2,.59.68,1.17,1.38,1.66,2A10.94,10.94,0,0,0,28,29.61a9.32,9.32,0,0,0,4.1-.2l-.36-.09Z"/></g></g></g><g class="cls-22"><g class="cls-16"><g class="cls-17"><path class="cls-2" d="M32.36,24,32,23.9l-.31.22h0C31.93,24.07,32.14,24,32.36,24Z"/></g></g></g><g class="cls-22"><g class="cls-23"><g class="cls-24"><path class="cls-2" d="M35.23,11.67l-.1-.06a9.19,9.19,0,0,0-5.93-1.28,10.6,10.6,0,0,0-5.67,2.95c.15.33.29.66.43,1h0a1.5,1.5,0,0,1,.68.85A6.59,6.59,0,0,1,25,16c.09.28.18.55.26.83s.17.53.25.8c.34-.28.68-.55,1-.8a6.45,6.45,0,0,1,3.71-1.49,4.17,4.17,0,0,1,3.66,2.43,4.67,4.67,0,0,1,.22,3.15c.32,0,.65,0,1,0a4.92,4.92,0,0,0,.55-.14,8.76,8.76,0,0,0,.5-1.87,14.33,14.33,0,0,0,.11-1.6c0-.31,0-.61,0-.92s0-.31,0-.47a2.38,2.38,0,0,1,0-.46,1.4,1.4,0,0,1,.42-1,1.63,1.63,0,0,1,.64-.36A1.13,1.13,0,0,1,37.7,14a8.33,8.33,0,0,0-2.47-2.35Z"/></g></g></g><g class="cls-22"><g class="cls-25"><g class="cls-26"><path class="cls-2" d="M27.88,29.25a13.53,13.53,0,0,1-2.57-2.6,13.29,13.29,0,0,1-.91-1.35,19.29,19.29,0,0,1-1-2,21.75,21.75,0,0,1-.89-2.45l-.1-.14h0l0-.06c-.09-.32-.17-.65-.25-1l0-.15q-.41-.91-.72-1.86c-.16-.5-.3-1-.41-1.5-.37.52-.73,1.05-1.08,1.58h0l-.39-.59-.1-.14a23.14,23.14,0,0,0-2.9-3.59,10.64,10.64,0,0,0-5.81-3.09,9.19,9.19,0,0,0-5.93,1.28l-.1.06a8.54,8.54,0,0,0-1.43,1.12,7,7,0,0,1,1.08-.24,10.24,10.24,0,0,1,1.75-.13,11.7,11.7,0,0,1,1.77.2,11.84,11.84,0,0,1,3,1,13.22,13.22,0,0,1,2.4,1.57,12,12,0,0,1,1.6,1.59A13.69,13.69,0,0,1,16.42,19c.15.26.28.53.41.8s.49.58.73.88h0l-.24.32.15.45c.11.36.2.73.28,1.09a5.07,5.07,0,0,1,.09.54c.05.33.11.66.13,1a6.88,6.88,0,0,1,0,1.11,3.2,3.2,0,0,1-.11.69,2.41,2.41,0,0,1-.08.25c-.06.18-.13.35-.2.52a1.08,1.08,0,0,1-.22.44,9.36,9.36,0,0,0,1-1.06c.49-.6,1.07-1.3,1.66-2,.59.68,1.17,1.38,1.66,2A10.94,10.94,0,0,0,28,29.61l.47.07-.58-.43Z"/></g></g></g><g class="cls-22"><g class="cls-27"><g class="cls-28"><path class="cls-2" d="M16.09,27.72a1.54,1.54,0,0,1-.91-.31,1.1,1.1,0,0,1-.39-.41l-.15-.34c0-.23-.08-.46-.14-.68a10.6,10.6,0,0,1-.16-1.13c0,.06,0,.13,0,.19l-.06-.48,0-.18-.08,0a5.87,5.87,0,0,1-7.81-2.27,5.17,5.17,0,0,1-.66-2.65,7.11,7.11,0,0,0-.74.71,8.23,8.23,0,0,0-.69,1.14,8.76,8.76,0,0,0-.5,1.82c0,.3-.07.6-.08.9s0,.75,0,1.12a1.45,1.45,0,0,1-.43,1,1.29,1.29,0,0,1-.3.22A9.31,9.31,0,0,0,5,28.13a9.91,9.91,0,0,0,7,1.48,11.67,11.67,0,0,0,4.7-2,1.92,1.92,0,0,1-.62.14Z"/></g></g></g><g class="cls-22"><g class="cls-16"><g class="cls-17"><path class="cls-2" d="M32.36,24,32,23.9l-.31.22h0C31.93,24.07,32.14,24,32.36,24Z"/></g></g></g><g class="cls-22"><g class="cls-23"><g class="cls-24"><path class="cls-2" d="M35.23,11.67l-.1-.06a9.19,9.19,0,0,0-5.93-1.28,10.6,10.6,0,0,0-5.67,2.95c.15.33.29.66.43,1h0a1.5,1.5,0,0,1,.68.85A6.59,6.59,0,0,1,25,16c.09.28.18.55.26.83s.17.53.25.8c.34-.28.68-.55,1-.8a6.45,6.45,0,0,1,3.71-1.49,4.17,4.17,0,0,1,3.66,2.43,4.67,4.67,0,0,1,.22,3.15c.32,0,.65,0,1,0a4.92,4.92,0,0,0,.55-.14,8.76,8.76,0,0,0,.5-1.87,14.33,14.33,0,0,0,.11-1.6c0-.31,0-.61,0-.92s0-.31,0-.47a2.38,2.38,0,0,1,0-.46,1.4,1.4,0,0,1,.42-1,1.63,1.63,0,0,1,.64-.36A1.13,1.13,0,0,1,37.7,14a8.33,8.33,0,0,0-2.47-2.35Z"/></g></g></g><g class="cls-22"><g class="cls-29"><g class="cls-30"><path class="cls-2" d="M5.47,11.61c.53-.07,1.06-.12,1.6-.17a6,6,0,0,1,1.2.05,12.46,12.46,0,0,1,1.6.28,9.19,9.19,0,0,1,2.56,1.09,12.79,12.79,0,0,1,1.26.93c.28.24.55.49.81.76a14.34,14.34,0,0,1,1.66,2.07A26.69,26.69,0,0,1,18.42,21c.47,1.1.87,2.22,1.32,3.32l.26-.3c.59.68,1.17,1.38,1.66,2a10.78,10.78,0,0,0,5.74,3.44c-.51-.34-1-.71-1.48-1.1a21.56,21.56,0,0,1-5.27-7.29,42.26,42.26,0,0,0-4.18-7.49,15.15,15.15,0,0,0-1.41-1.48,9.77,9.77,0,0,0-4.26-1.79,9.19,9.19,0,0,0-5.93,1.28l-.1.06-.17.11A6.68,6.68,0,0,1,5.47,11.61Z"/></g></g></g><g class="cls-22"><g class="cls-27"><g class="cls-28"><path class="cls-2" d="M16.09,27.72a1.54,1.54,0,0,1-.91-.31,1.1,1.1,0,0,1-.39-.41l-.15-.34c0-.23-.08-.46-.14-.68a10.6,10.6,0,0,1-.16-1.13c0,.06,0,.13,0,.19l-.06-.48,0-.18-.08,0a5.87,5.87,0,0,1-7.81-2.27,5.17,5.17,0,0,1-.66-2.65,7.11,7.11,0,0,0-.74.71,8.23,8.23,0,0,0-.69,1.14,8.76,8.76,0,0,0-.5,1.82c0,.3-.07.6-.08.9s0,.75,0,1.12a1.45,1.45,0,0,1-.43,1,1.29,1.29,0,0,1-.3.22A9.31,9.31,0,0,0,5,28.13a9.91,9.91,0,0,0,7,1.48,11.67,11.67,0,0,0,4.7-2,1.92,1.92,0,0,1-.62.14Z"/></g></g></g><g class="cls-22"><g class="cls-16"><g class="cls-17"><path class="cls-2" d="M32.36,24,32,23.9l-.31.22h0C31.93,24.07,32.14,24,32.36,24Z"/></g></g></g><g class="cls-22"><g class="cls-23"><g class="cls-24"><path class="cls-2" d="M35.23,11.67l-.1-.06a9.19,9.19,0,0,0-5.93-1.28,10.6,10.6,0,0,0-5.67,2.95c.15.33.29.66.43,1h0a1.5,1.5,0,0,1,.68.85A6.59,6.59,0,0,1,25,16c.09.28.18.55.26.83s.17.53.25.8c.34-.28.68-.55,1-.8a6.45,6.45,0,0,1,3.71-1.49,4.17,4.17,0,0,1,3.66,2.43,4.67,4.67,0,0,1,.22,3.15c.32,0,.65,0,1,0a4.92,4.92,0,0,0,.55-.14,8.76,8.76,0,0,0,.5-1.87,14.33,14.33,0,0,0,.11-1.6c0-.31,0-.61,0-.92s0-.31,0-.47a2.38,2.38,0,0,1,0-.46,1.4,1.4,0,0,1,.42-1,1.63,1.63,0,0,1,.64-.36A1.13,1.13,0,0,1,37.7,14a8.33,8.33,0,0,0-2.47-2.35Z"/></g></g></g><g class="cls-22"><g class="cls-31"><g class="cls-32"><path class="cls-2" d="M21.07,23.09c-.49-.86-.92-1.74-1.34-2.63a25.12,25.12,0,0,1-1.32-3.07,19.11,19.11,0,0,0-1.65-2.7c-.31-.35-.61-.71-.94-1a9.26,9.26,0,0,0-1-.88,13.62,13.62,0,0,0-2.62-1.51,13.09,13.09,0,0,0-2-.59,8.52,8.52,0,0,1,.86.26,12,12,0,0,1,1.63.75,13.21,13.21,0,0,1,1.51,1.06,12.61,12.61,0,0,1,2.17,2.33,30.62,30.62,0,0,1,2.87,5.12c.47.95.95,1.89,1.46,2.82a17.83,17.83,0,0,0,1.53,2.41A11.45,11.45,0,0,0,24,27.12a7.57,7.57,0,0,0,.76.49A17.12,17.12,0,0,1,21.07,23.09Z"/></g></g></g><g class="cls-22"><g class="cls-27"><g class="cls-28"><path class="cls-2" d="M16.09,27.72a1.54,1.54,0,0,1-.91-.31,1.1,1.1,0,0,1-.39-.41l-.15-.34c0-.23-.08-.46-.14-.68a10.6,10.6,0,0,1-.16-1.13c0,.06,0,.13,0,.19l-.06-.48,0-.18-.08,0a5.87,5.87,0,0,1-7.81-2.27,5.17,5.17,0,0,1-.66-2.65,7.11,7.11,0,0,0-.74.71,8.23,8.23,0,0,0-.69,1.14,8.76,8.76,0,0,0-.5,1.82c0,.3-.07.6-.08.9s0,.75,0,1.12a1.45,1.45,0,0,1-.43,1,1.29,1.29,0,0,1-.3.22A9.31,9.31,0,0,0,5,28.13a9.91,9.91,0,0,0,7,1.48,11.67,11.67,0,0,0,4.7-2,1.92,1.92,0,0,1-.62.14Z"/></g></g></g><g class="cls-33"><g class="cls-34"><g class="cls-35"><path class="cls-36" d="M19.79,23.52a.19.19,0,0,0,0,.15.61.61,0,0,0,.07.14l.14.25s1,1.19,1,1.16a3.61,3.61,0,0,1,.44-1.83c.28-.57.62-1.11.86-1.7a.56.56,0,0,1,.21-.29.35.35,0,0,1,.3,0,.74.74,0,0,1,.27.16h0s-.83-1.05-.86-1a.32.32,0,0,0-.3-.05,1.07,1.07,0,0,0-.27.16,5.68,5.68,0,0,0-1.74,2.32A1.41,1.41,0,0,0,19.79,23.52Z"/></g></g></g><g class="cls-33"><g class="cls-37"><g class="cls-38"><path class="cls-36" d="M21.58,21.93a1.54,1.54,0,0,1,1.1-.91,3.26,3.26,0,0,0-.46-.52.32.32,0,0,0-.3-.05.87.87,0,0,0-.26.16,5.62,5.62,0,0,0-1.75,2.32,1.41,1.41,0,0,0-.12.59.19.19,0,0,0,0,.15.61.61,0,0,0,.07.14l.14.25.53.61A9.19,9.19,0,0,1,21.58,21.93Z"/></g></g></g><path class="cls-2" d="M39,18.13a10.29,10.29,0,0,1-1.48,5.35A8.16,8.16,0,0,1,33.09,27a6.84,6.84,0,0,1-5.61-.64,8.79,8.79,0,0,1-2.19-2.11c-.08-.1-.17-.21-.25-.33L25,23.77l-.06-.09,0,0a5.54,5.54,0,0,0,4.73,1.19,5.83,5.83,0,0,0,3.95-2.83,4.88,4.88,0,0,0,.27-4.35.14.14,0,0,0,0-.06h0s0,0,0-.05v0l0,0,0,0-.06-.11,0-.06h0l0-.06h0l0-.06h0l0-.06h0l0,0v0l0,0,0,0a.1.1,0,0,0,0-.05l0,0h0l0-.05h0l0-.06,0-.05h0s0,0-.05-.05l0,0,0,0,0,0-.05,0,0,0L33,16.45l0,0-.11-.1,0,0h0l0,0-.22-.17,0,0,0,0-.18-.12,0,0-.19-.11,0,0-.27-.13,0,0h0l0,0h0l0,0-.05,0-.06,0h0l0,0h-.08l-.17-.05a3.6,3.6,0,0,0-.93-.13,6.45,6.45,0,0,0-3.71,1.49,19.87,19.87,0,0,0-4.07,3.91h0S20.13,23.89,20,24.07h0c-.59.68-1.17,1.38-1.66,2A10.94,10.94,0,0,1,12,29.61a9.91,9.91,0,0,1-7-1.48,9.73,9.73,0,0,1-2-1.69L3,26.34l-.07-.08-.05-.06,0,0-.06-.06h0a1.83,1.83,0,0,1-.13-.16l0,0-.06-.08h0l0-.07,0,0-.06-.09-.21-.3,0-.07h0l-.05-.08,0-.06L2,25l-.08-.12,0-.05v0l-.06-.1h0a9.93,9.93,0,0,1-.19-1.89,7.81,7.81,0,0,1,1.07-4.14A7.09,7.09,0,0,1,7,15.57a7.18,7.18,0,0,1,2.16-.21H9.08l-.07,0H9l-.2,0h0l-.1,0h0l-.06,0,0,0h0l-.06,0-.07,0,0,0-.05,0h0l-.05,0h0l0,0h0l0,0-.05,0-.13.06,0,0,0,0h0l0,0,0,0,0,0-.17.12,0,0,0,0,0,0,0,0,0,0s0,0,0,0h0s0,0,0,0l-.11.09,0,0h0l0,0H7l0,0,0,.05,0,.05-.08.08,0,0s0,0,0,0l0,0,0,0a2.43,2.43,0,0,0-.2.25l0,0,0,.05,0,0,0,0,0,.05,0,0-.09.16,0,0h0l0,.05h0l0,.05,0,0a.61.61,0,0,0,0,.12,4.85,4.85,0,0,0,.28,4.35l0,.07,0,.06h0l0,.06,0,.06a.21.21,0,0,0,0,.06l0,0s0,0,0,0l0,0a5.83,5.83,0,0,0,3.69,2.42,5.54,5.54,0,0,0,4.73-1.19c.42-.39,1.8-2.1,2.5-3h0l2.45-3h0a25.71,25.71,0,0,1,3.39-4.32,10.63,10.63,0,0,1,5.82-3.09,9.22,9.22,0,0,1,5.93,1.28l.09.06.28.18.09.07.08.05.08.06.08.06.16.12.08.06.07.06.08.07.15.12.07.07.14.13a.46.46,0,0,1,.07.07l.07.06h0l.06.06a.46.46,0,0,1,.07.07h0l.13.14.06.07.06.07.06.06.07.08,0,.07.06.07,0,.06.12.16,0,.07h0l0,.07.11.15,0,.06,0,.05,0,.05.13.2a.05.05,0,0,1,0,0l0,0,0,0,.16.29,0,.06,0,0,0,.09a.93.93,0,0,0,.05.1l0,0,0,.06,0,.07c0,.05,0,.11.08.16l0,.07,0,.12s0,.07.05.1a.25.25,0,0,0,0,.07l0,.07,0,.05,0,.07a.53.53,0,0,1,.05.15l0,.07.06.15v.08a12,12,0,0,1,.11,1.7Z"/><g class="cls-39"><g class="cls-40"><g class="cls-41"><path class="cls-2" d="M4.61,17.45A7.22,7.22,0,0,0,4.9,20a5.89,5.89,0,0,0,.21.59l0,.07a.11.11,0,0,0,0,.05.79.79,0,0,0,0,.09l.11.22a6.23,6.23,0,0,0,.6.94L6,22H6l.09.1a1.54,1.54,0,0,0,.17.19,3.59,3.59,0,0,0,.39.39L7,23.1l.06,0h0l.11.08.06,0a5.31,5.31,0,0,1-.64-.78l0,0,0,0,0,0,0-.05,0-.06,0-.06h0l0-.06a.25.25,0,0,0,0-.07,4.88,4.88,0,0,1-.27-4.35.61.61,0,0,1,0-.12v0l0,0h0l0-.05h0l0,0,.09-.16,0,0,0-.05,0,0,0,0,0-.05,0,0c.06-.09.13-.17.2-.26l0,0,0,0,0,0,0,0a.3.3,0,0,1,.08-.08l0-.05,0-.05s0,0,0,0h0l0,0h0l0,0a.48.48,0,0,1,.11-.09s0,0,0,0h0l0,0,0,0,0,0,0,0,0,0,0,0L7.65,16l0,0,0,0,0,0h0l0,0,0,0L8,15.75l.05,0,0,0h0l0,0h0l.05,0h0l.05,0,0,0,.07,0,.06,0h0l0,0,.06,0h0l.1,0h0l.2,0H9l.07,0h.06A7.18,7.18,0,0,0,7,15.57a7.32,7.32,0,0,0-2.28,1C4.66,16.88,4.63,17.16,4.61,17.45Z"/></g></g></g><g class="cls-39"><g class="cls-42"><g class="cls-43"><path class="cls-2" d="M38.89,16.43v-.08l-.06-.15,0-.08a.88.88,0,0,0-.05-.15l0-.06s0,0,0-.05l0-.08a.14.14,0,0,1,0-.06,2564860342281.74,2564860342281.74,0,0,1-.1-.22l0-.07s0-.11-.08-.16l0-.08,0,0,0,0-.05-.1,0-.09,0,0,0-.06L38,14.53l0,0,0,0,0,0-.13-.2,0-.05,0-.05,0-.06-.11-.15,0-.07h0l0-.07-.12-.16,0-.06-.06-.07,0-.07-.07-.08-.06-.06-.06-.07L37,13.13,36.86,13h0a.46.46,0,0,0-.07-.07l-.06-.07h0l-.07-.06a.46.46,0,0,0-.07-.07l-.14-.13-.07-.07-.15-.12-.08-.07-.07-.06L36,12.21l-.16-.12L35.76,12,35.68,12l-.08-.06-.09-.06-.28-.18-.09-.06a9.23,9.23,0,0,0-5.94-1.28,10.64,10.64,0,0,0-5.81,3.09A25.71,25.71,0,0,0,20,17.74h0l-2.45,3h0c-.31.4-.74,1-1.17,1.48l.05,0a1.23,1.23,0,0,1,.49.47,1.27,1.27,0,0,1,.19.66c0,.17,0,.37-.08.54a2.84,2.84,0,0,1-.25.53,2.41,2.41,0,0,1-.26.39c-.18.23-.36.46-.56.67a2,2,0,0,1-.37.34c-.23.18-.47.37-.72.53a8.77,8.77,0,0,1-.92.46,8.91,8.91,0,0,1-1.35.45,7.84,7.84,0,0,1-2.46.21,7.41,7.41,0,0,1-1.41-.23,12,12,0,0,1-1.31-.46c-.31-.13-.62-.27-.92-.43a8.48,8.48,0,0,1-1.12-.76,9,9,0,0,1-1.48-1.35,9.52,9.52,0,0,1-2-3.65,8.61,8.61,0,0,0-.27,2.25,10,10,0,0,0,.19,1.89h0l.06.1v0l0,.05L2,25l0,.08,0,.06.05.07v0l0,.07.22.3a.41.41,0,0,0,0,.09l0,0,0,.07h0l.06.08,0,0a1.83,1.83,0,0,0,.13.16h0l.06.06,0,0,.05.06.07.08.08.1a9.73,9.73,0,0,0,2,1.69,9.91,9.91,0,0,0,7,1.48A10.94,10.94,0,0,0,18.34,26c.49-.6,1.07-1.3,1.66-2h0l2.44-3.36h0a20.13,20.13,0,0,1,4.07-3.91,8.72,8.72,0,0,1,2.08-1.18,1.72,1.72,0,0,1-.7-.21l-.34-.24A1.59,1.59,0,0,1,27.08,14a1.61,1.61,0,0,1,.48-1.11,1.78,1.78,0,0,1,1.16-.46,4.58,4.58,0,0,1,.64,0,13.49,13.49,0,0,1,1.69.25,9,9,0,0,1,1.62.53,8.23,8.23,0,0,1,2.49,1.64,9.25,9.25,0,0,1,1.12,1.3,6.61,6.61,0,0,1,.72,1.3,7,7,0,0,1,.49,1.42,9,9,0,0,1,.21,1.71,9.91,9.91,0,0,1-.15,1.72,6.57,6.57,0,0,1-.33,1.25,7.72,7.72,0,0,1-.29.72,8.13,8.13,0,0,0,.59-.82A10.29,10.29,0,0,0,39,18.13a10.71,10.71,0,0,0-.11-1.7Z"/></g></g></g><g class="cls-39"><g class="cls-44"><g class="cls-45"><path class="cls-2" d="M24.94,23.72l0,0,.06.09.08.11c.08.12.17.23.25.33a9.09,9.09,0,0,0,2.05,2,8.18,8.18,0,0,0,1-.06,11.06,11.06,0,0,0,2.13-.53,9.1,9.1,0,0,0,1.46-.82,6.69,6.69,0,0,0,1-.94,6.41,6.41,0,0,0,.65-1.06,6.84,6.84,0,0,0,.38-1.34v0a5.38,5.38,0,0,1-.31.64,5.79,5.79,0,0,1-3.94,2.83A5.54,5.54,0,0,1,24.94,23.72Z"/></g></g></g><g class="cls-46"><g class="cls-42"><g class="cls-43"><path class="cls-47" d="M38.89,16.43v-.08l-.06-.15,0-.08a.88.88,0,0,0-.05-.15l0-.06s0,0,0-.05l0-.08a.14.14,0,0,1,0-.06,2564860342281.74,2564860342281.74,0,0,1-.1-.22l0-.07s0-.11-.08-.16l0-.08,0,0,0,0-.05-.1,0-.09,0,0,0-.06L38,14.53l0,0,0,0,0,0-.12-.2,0-.05,0-.05,0-.06-.11-.15,0-.07,0-.07-.12-.16,0-.06-.06-.07,0-.07-.07-.08-.06-.06-.06-.07L37,13.13,36.86,13h0a.46.46,0,0,0-.07-.07l-.06-.07h0l-.07-.06a.46.46,0,0,0-.07-.07l-.14-.13a.46.46,0,0,1-.07-.07l-.15-.12-.08-.07-.07-.06L36,12.21l-.16-.12L35.76,12,35.68,12l-.08-.06-.09-.06-.28-.18-.09-.06a9.22,9.22,0,0,0-5.93-1.28,10.63,10.63,0,0,0-5.82,3.09A25.71,25.71,0,0,0,20,17.74h0l-2.45,3h0c-.7.92-2.08,2.63-2.5,3a4.68,4.68,0,0,1-1.94,1.07,7.19,7.19,0,0,1-1.3.47,8.12,8.12,0,0,1-1.48.21,6.06,6.06,0,0,1-1,0,9.15,9.15,0,0,1-1.46-.27,6.84,6.84,0,0,1-2.52-1.39,5.86,5.86,0,0,1-1-1.09,6.15,6.15,0,0,1-.67-1.33,4.83,4.83,0,0,1-.27-1,6.48,6.48,0,0,1-.1-1.52,9,9,0,0,1,.17-1.16,6.33,6.33,0,0,0-.8,1.05,7.81,7.81,0,0,0-1.07,4.14,10.91,10.91,0,0,0,.19,1.89h0l.06.1v0l0,.05L2,25s0,0,0,.08l0,.06.05.08h0a.43.43,0,0,1,0,.07l.22.3a.24.24,0,0,0,.06.09l0,0,0,.07h0l.06.08,0,0a1.83,1.83,0,0,0,.13.16h0l.06.06,0,0,.05.06.07.08.08.1a9.73,9.73,0,0,0,2,1.69,9.91,9.91,0,0,0,7,1.48A10.91,10.91,0,0,0,18.34,26c.49-.6,1.07-1.3,1.66-2h0c.12-.17,2.4-3.31,2.44-3.35h0a20.13,20.13,0,0,1,4.07-3.91,6.45,6.45,0,0,1,3.71-1.49,3.6,3.6,0,0,1,.93.13l.17.05h.17l.05,0,.05,0,0,0h0l.2,0H32l0,0a4.34,4.34,0,0,1,.5.2,1,1,0,0,1,.18.07h0l.17.09.51.38.3.24a5.07,5.07,0,0,1,.77,1A5.92,5.92,0,0,1,35,18.69a4.12,4.12,0,0,1,.23.78,7.14,7.14,0,0,1,.15,1.13,7.34,7.34,0,0,1-.1,1.15,5.87,5.87,0,0,1-.64,1.8,5.12,5.12,0,0,1-.42.65,8,8,0,0,1-.76.9,7.73,7.73,0,0,1-1.57,1.21,8.13,8.13,0,0,1-2.08.88,7.36,7.36,0,0,0,3.3-.22,8.23,8.23,0,0,0,4.43-3.49A10.29,10.29,0,0,0,39,18.13a10.71,10.71,0,0,0-.11-1.7Z"/></g></g></g><g class="cls-46"><g class="cls-42"><g class="cls-48"><path class="cls-47" d="M38.89,16.43v-.08l-.06-.15,0-.08a.88.88,0,0,0-.05-.15l0-.06s0,0,0-.05l0-.08a.14.14,0,0,1,0-.06,2564860342281.74,2564860342281.74,0,0,1-.1-.22l0-.07s0-.11-.08-.16l0-.08,0,0,0,0-.05-.1,0-.09,0,0,0-.06L38,14.53l0,0,0,0,0,0-.12-.2,0-.05,0-.05,0-.06-.11-.15,0-.07,0-.07-.12-.16,0-.06-.06-.07,0-.07-.07-.08-.06-.06-.06-.07L37,13.13,36.86,13h0a.46.46,0,0,0-.07-.07l-.06-.07h0l-.07-.06a.46.46,0,0,0-.07-.07l-.14-.13a.46.46,0,0,1-.07-.07l-.15-.12-.08-.07-.07-.06L36,12.21l-.16-.12L35.76,12,35.68,12l-.08-.06-.09-.06-.28-.18-.09-.06a9.22,9.22,0,0,0-5.93-1.28,10.63,10.63,0,0,0-5.82,3.09A25.71,25.71,0,0,0,20,17.74h0l-2.17,2.62a15.63,15.63,0,0,1-1.77,2.36c-.25.28-.52.54-.79.79-.08.08-.15.16-.21.21a4.26,4.26,0,0,1-.76.56c-.23.17-.46.33-.7.48a9,9,0,0,1-1.23.65,12.43,12.43,0,0,1-1.71.62,11.11,11.11,0,0,1-1.82.28,7,7,0,0,1-1.29,0A9.86,9.86,0,0,1,5.84,26a10,10,0,0,1-1.6-.63,7.45,7.45,0,0,1-1.4-.94,5.36,5.36,0,0,1-.9-.88l-.31-.38a10.23,10.23,0,0,0,.18,1.55h0l.06.1v0l0,.05L2,25l0,.08,0,.06.05.07v0l0,.07.22.3.06.09,0,0,0,.07h0l.06.08,0,0a1.83,1.83,0,0,0,.13.16h0l.06.06,0,0,.05.06.07.08.08.1a9.73,9.73,0,0,0,2,1.69,9.91,9.91,0,0,0,7,1.48A10.91,10.91,0,0,0,18.34,26c.49-.6,1.07-1.3,1.66-2h0c.12-.17,2.4-3.31,2.44-3.35h0a20.13,20.13,0,0,1,4.07-3.91,6.45,6.45,0,0,1,3.71-1.49h.22a5,5,0,0,1,.95-.08,5.3,5.3,0,0,1,1.06.14,6.44,6.44,0,0,1,1,.35A5.12,5.12,0,0,1,34,16a7.25,7.25,0,0,1,2.23,2.18,7.44,7.44,0,0,1,.67,1.32,6.49,6.49,0,0,1,.33,1,7.9,7.9,0,0,1,.17,2.61c0,.19,0,.39-.07.58.06-.08.11-.17.17-.26A10.29,10.29,0,0,0,39,18.13a10.71,10.71,0,0,0-.11-1.7Z"/></g></g></g><g class="cls-46"><g class="cls-49"><g class="cls-50"><path class="cls-47" d="M24.77,18.2A9.07,9.07,0,0,1,25.92,17a9.35,9.35,0,0,1,1.4-1,11.14,11.14,0,0,1,1.57-.72,6.77,6.77,0,0,1,1.25-.33,9.71,9.71,0,0,1,1.7-.18,8.66,8.66,0,0,1,1.69.18,6,6,0,0,1,1.17.33,9.62,9.62,0,0,1,1.49.69,8,8,0,0,1,1.3,1A6.48,6.48,0,0,1,39,19c0-.28,0-.56,0-.84a12,12,0,0,0-.11-1.7v-.08l-.06-.15,0-.08a.88.88,0,0,0-.05-.15l0-.06s0,0,0-.05l0-.08a.14.14,0,0,1,0-.06,2564860342281.74,2564860342281.74,0,0,1-.1-.22l0-.07s0-.11-.08-.16l0-.08,0,0,0,0a.93.93,0,0,1-.05-.1l0-.09,0,0,0-.06L38,14.53l0,0,0,0,0,0-.13-.2,0-.05,0-.05,0-.06-.11-.15,0-.07,0-.07-.12-.16,0-.06-.06-.07,0-.07-.07-.08-.06-.06-.06-.07L37,13.13,36.86,13h0a.46.46,0,0,0-.07-.07l-.06-.07h0l-.07-.06a.46.46,0,0,0-.07-.07l-.14-.13a.46.46,0,0,1-.07-.07l-.15-.12-.08-.07-.07-.06L36,12.21l-.16-.12L35.76,12,35.68,12l-.08-.06-.09-.06-.28-.18-.1-.06a9.18,9.18,0,0,0-5.92-1.28,10.63,10.63,0,0,0-5.82,3.09A25.71,25.71,0,0,0,20,17.74h0L18.87,19.1c-.06.16-.12.33-.19.49a22.43,22.43,0,0,1-2.54,4.88,13.62,13.62,0,0,1-1.93,2.16,10.19,10.19,0,0,1-2.44,1.6,10.35,10.35,0,0,1-1.8.62A10.53,10.53,0,0,1,8,29.11a11,11,0,0,1-1.15,0A9.42,9.42,0,0,0,12,29.6,10.87,10.87,0,0,0,18.34,26c.49-.6,1.07-1.3,1.66-2h0c.12-.17,2.4-3.32,2.44-3.36h0a20.33,20.33,0,0,1,2.32-2.5Z"/></g></g></g><g class="cls-22"><g class="cls-49"><g class="cls-50"><path class="cls-2" d="M24.77,18.2A9.07,9.07,0,0,1,25.92,17a9.35,9.35,0,0,1,1.4-1,11.14,11.14,0,0,1,1.57-.72,6.77,6.77,0,0,1,1.25-.33,9.71,9.71,0,0,1,1.7-.18,8.66,8.66,0,0,1,1.69.18,6,6,0,0,1,1.17.33,9.62,9.62,0,0,1,1.49.69,8,8,0,0,1,1.3,1A6.48,6.48,0,0,1,39,19c0-.28,0-.56,0-.84a12,12,0,0,0-.11-1.7v-.08l-.06-.15,0-.08a.88.88,0,0,0-.05-.15l0-.06s0,0,0-.05l0-.08a.14.14,0,0,1,0-.06,2564860342281.74,2564860342281.74,0,0,1-.1-.22l0-.07s0-.11-.08-.16l0-.08,0,0,0,0a.93.93,0,0,1-.05-.1l0-.09,0,0,0-.06L38,14.53l0,0,0,0,0,0-.13-.2,0-.05,0-.05,0-.06-.11-.15,0-.07,0-.07-.12-.16,0-.06-.06-.07,0-.07-.07-.08-.06-.06-.06-.07L37,13.13,36.86,13h0a.46.46,0,0,0-.07-.07l-.06-.07h0l-.07-.06a.46.46,0,0,0-.07-.07l-.14-.13a.46.46,0,0,1-.07-.07l-.15-.12-.08-.07-.07-.06L36,12.21l-.16-.12L35.76,12,35.68,12l-.08-.06-.09-.06-.28-.18-.1-.06a9.18,9.18,0,0,0-5.92-1.28,10.63,10.63,0,0,0-5.82,3.09A25.71,25.71,0,0,0,20,17.74h0L18.87,19.1c-.06.16-.12.33-.19.49a22.43,22.43,0,0,1-2.54,4.88,13.62,13.62,0,0,1-1.93,2.16,10.19,10.19,0,0,1-2.44,1.6,10.35,10.35,0,0,1-1.8.62A10.53,10.53,0,0,1,8,29.11a11,11,0,0,1-1.15,0A9.42,9.42,0,0,0,12,29.6,10.87,10.87,0,0,0,18.34,26c.49-.6,1.07-1.3,1.66-2h0c.12-.17,2.4-3.32,2.44-3.36h0a20.33,20.33,0,0,1,2.32-2.5Z"/></g></g></g><g class="cls-22"><g class="cls-51"><g class="cls-52"><path class="cls-2" d="M37.52,13.77l-.12-.16,0-.06-.06-.07,0-.07-.07-.08-.06-.06-.06-.07L37,13.13,36.86,13h0a.46.46,0,0,0-.07-.07l-.06-.07h0l-.07-.06a.46.46,0,0,0-.07-.07l-.14-.13-.07-.07-.15-.12-.08-.07-.07-.06L36,12.21l-.16-.12L35.76,12,35.68,12l-.08-.06-.09-.06-.28-.18-.09-.06a9.23,9.23,0,0,0-5.94-1.28,10.64,10.64,0,0,0-5.81,3.09,23.77,23.77,0,0,0-3.13,3.94c0,.23-.08.47-.13.7s-.14.63-.22.94a22.43,22.43,0,0,1-1,3.29,17.58,17.58,0,0,1-1.78,3.41,12.28,12.28,0,0,1-2.4,2.59,13.7,13.7,0,0,1-1.4,1A10.55,10.55,0,0,0,18.34,26c.49-.6,1.07-1.3,1.66-2h0l2.37-3.27,0-.08a12.56,12.56,0,0,1,.86-1.45,15.13,15.13,0,0,1,2.47-2.84,18.22,18.22,0,0,1,1.69-1.32A11.85,11.85,0,0,1,29,14.16a10.94,10.94,0,0,1,4.61-1.28,8,8,0,0,1,1,0,10.35,10.35,0,0,1,1.24.21,7.76,7.76,0,0,1,1.68.64Z"/></g></g></g><g class="cls-22"><g class="cls-53"><g class="cls-54"><path class="cls-2" d="M22.32,19.94a9.25,9.25,0,0,1,.59-1.42,11,11,0,0,1,1.55-2.25,11.45,11.45,0,0,1,1.77-1.63,17,17,0,0,1,2.5-1.57,24.64,24.64,0,0,1,5.34-1.86l.23,0a9,9,0,0,0-5.1-.84,10.64,10.64,0,0,0-5.81,3.09c-.21.21-.42.42-.61.64a24.37,24.37,0,0,1-.93,4,28.59,28.59,0,0,1-2.1,4.82c-.4.71-.82,1.41-1.28,2.09a27.63,27.63,0,0,1-1.73,2.3c-.23.28-.47.55-.71.82a9.49,9.49,0,0,0,2.31-2c.49-.6,1.06-1.3,1.66-2h0c.1-.12,1.36-1.86,2-2.79a7.68,7.68,0,0,1,.28-1.33Z"/></g></g></g><g class="cls-22"><g class="cls-55"><g class="cls-56"><path class="cls-2" d="M29.2,10.33h-.08l-.78.63c-.35.3-.66.63-1,.94l-1,.94a22.59,22.59,0,0,0-1.7,1.83c-.2.26-.4.52-.59.79A21.39,21.39,0,0,0,22,19.05c-.37.87-.69,1.76-1,2.65s-.55,1.47-.85,2.19l1-1.42a14.22,14.22,0,0,1,.47-2.13A16,16,0,0,1,22.55,18a14.25,14.25,0,0,1,1-1.82,13.8,13.8,0,0,1,3-3.22,16.44,16.44,0,0,1,3.75-2.21c.38-.16.76-.31,1.15-.45a8.55,8.55,0,0,0-2.26,0Z"/></g></g></g><g class="cls-57"><g class="cls-58"><g class="cls-59"><path class="cls-2" d="M23,19.7a19,19,0,0,1,5.32-4.94A12,12,0,0,1,35.41,13a10.61,10.61,0,0,0-7.34,1.65A18.39,18.39,0,0,0,23,19.7Z"/></g></g></g><g class="cls-60"><g class="cls-61"><g class="cls-62"><path class="cls-2" d="M19.41,20.79A15.55,15.55,0,0,1,13.84,29,14.19,14.19,0,0,0,19.41,20.79Z"/></g></g></g><g class="cls-63"><g class="cls-64"><g class="cls-65"><path class="cls-2" d="M38.35,16.31a7.42,7.42,0,0,0-4.44-5.15,9.27,9.27,0,0,0-7,.09,10,10,0,0,0-5.05,4.65,12.71,12.71,0,0,1,8.67-3.4A10.21,10.21,0,0,1,38.35,16.31Z"/></g></g></g><g class="cls-63"><g class="cls-64"><g class="cls-65"><path class="cls-2" d="M38.35,16.31a7.42,7.42,0,0,0-4.44-5.15,9.27,9.27,0,0,0-7,.09,10,10,0,0,0-5.05,4.65,12.71,12.71,0,0,1,8.67-3.4A10.21,10.21,0,0,1,38.35,16.31Z"/></g></g></g><g class="cls-66"><g class="cls-67"><g class="cls-68"><path class="cls-2" d="M35.43,12.48a9.38,9.38,0,0,0-1.88-1.06,10.17,10.17,0,0,0-2.16-.59,9.84,9.84,0,0,0-2,0l-.48.07a8.59,8.59,0,0,0-1.67.46,10.64,10.64,0,0,0-1.07.53l-.52.32-.24.15-.13.09-.05,0-.24.2a11,11,0,0,1,4.5-1.25,10.9,10.9,0,0,1,4.67.7,9.58,9.58,0,0,1,2,1l.55.4A9.86,9.86,0,0,0,35.43,12.48Z"/></g></g></g><g class="cls-63"><g class="cls-69"><g class="cls-70"><path class="cls-2" d="M1.7,16.47a7.38,7.38,0,0,1,4.44-5.15,9.27,9.27,0,0,1,7,.09,10.05,10.05,0,0,1,5.05,4.64,12.71,12.71,0,0,0-8.67-3.4A10.19,10.19,0,0,0,1.7,16.47Z"/></g></g></g><g class="cls-71"><g class="cls-72"><g class="cls-73"><path class="cls-2" d="M4.62,12.63A9.34,9.34,0,0,1,6.5,11.58,9.63,9.63,0,0,1,8.66,11a9.84,9.84,0,0,1,2,0l.48.08a7.94,7.94,0,0,1,1.67.46,10.56,10.56,0,0,1,1.07.52c.17.11.34.22.52.32l.24.16.13.08,0,0,.24.2a11,11,0,0,0-4.51-1.25,10.73,10.73,0,0,0-4.66.71,9.88,9.88,0,0,0-2,1l-.54.4a9.86,9.86,0,0,1,1.23-1.1Z"/></g></g></g></svg>