<svg width="386" height="45" viewBox="0 0 386 45" fill="none" xmlns="http://www.w3.org/2000/svg">
<path d="M21.54 43.8C18.26 43.8 15.3 43.26 12.66 42.18C10.06 41.06 7.8 39.54 5.88 37.62C4 35.7 2.54 33.48 1.5 30.96C0.499997 28.4 -2.98023e-06 25.68 -2.98023e-06 22.8C-2.98023e-06 19.92 0.499997 17.22 1.5 14.7C2.54 12.14 4 9.90005 5.88 7.98005C7.8 6.06005 10.06 4.56005 12.66 3.48005C15.3 2.36005 18.26 1.80005 21.54 1.80005H27.48V8.10005H21.72C19.6 8.10005 17.66 8.48005 15.9 9.24005C14.14 10 12.6 11.04 11.28 12.36C10 13.68 9 15.24 8.28 17.04C7.56 18.8 7.2 20.72 7.2 22.8C7.2 24.88 7.56 26.82 8.28 28.62C9 30.42 10 31.98 11.28 33.3C12.6 34.58 14.14 35.6 15.9 36.36C17.66 37.08 19.6 37.44 21.72 37.44H27.48V43.8H21.54ZM45.142 44.52C42.222 44.52 39.702 43.8 37.582 42.36C35.462 40.92 33.822 39 32.662 36.6C31.542 34.16 30.982 31.48 30.982 28.56C30.982 25.52 31.622 22.8 32.902 20.4C34.222 17.96 36.082 16.04 38.482 14.64C40.922 13.2 43.822 12.48 47.182 12.48C50.502 12.48 53.322 13.2 55.642 14.64C58.002 16.04 59.802 17.96 61.042 20.4C62.322 22.8 62.962 25.48 62.962 28.44V43.8H56.062V38.1H55.942C55.342 39.22 54.562 40.28 53.602 41.28C52.642 42.24 51.462 43.02 50.062 43.62C48.662 44.22 47.022 44.52 45.142 44.52ZM47.002 38.64C48.802 38.64 50.362 38.2 51.682 37.32C53.042 36.4 54.082 35.18 54.802 33.66C55.562 32.1 55.942 30.36 55.942 28.44C55.942 26.52 55.582 24.82 54.862 23.34C54.142 21.82 53.122 20.62 51.802 19.74C50.482 18.82 48.902 18.36 47.062 18.36C45.142 18.36 43.502 18.82 42.142 19.74C40.782 20.62 39.742 21.82 39.022 23.34C38.302 24.86 37.942 26.58 37.942 28.5C37.942 30.38 38.302 32.1 39.022 33.66C39.742 35.18 40.762 36.4 42.082 37.32C43.442 38.2 45.082 38.64 47.002 38.64ZM70.0181 43.8V26.16C70.0181 23.52 70.6181 21.18 71.8181 19.14C73.0181 17.06 74.7181 15.44 76.9181 14.28C79.1181 13.08 81.6981 12.48 84.6581 12.48C87.6181 12.48 90.1781 13.08 92.3381 14.28C94.5381 15.44 96.2381 17.06 97.4381 19.14C98.6381 21.18 99.2381 23.52 99.2381 26.16V43.8H92.3981V26.22C92.3981 24.66 92.0381 23.3 91.3181 22.14C90.5981 20.94 89.6381 20.02 88.4381 19.38C87.2781 18.7 85.9981 18.36 84.5981 18.36C83.2381 18.36 81.9581 18.7 80.7581 19.38C79.5981 20.02 78.6581 20.94 77.9381 22.14C77.2581 23.3 76.9181 24.66 76.9181 26.22V43.8H70.0181ZM116.878 43.8C114.158 43.8 112.018 43.02 110.458 41.46C108.938 39.9 108.178 37.78 108.178 35.1V5.52005H115.018V34.8C115.018 35.72 115.298 36.48 115.858 37.08C116.418 37.64 117.158 37.92 118.078 37.92H124.498V43.8H116.878ZM102.898 19.08V13.2H124.558V19.08H102.898ZM144.27 43.8C140.83 43.8 137.81 43.16 135.21 41.88C132.65 40.56 130.65 38.76 129.21 36.48C127.77 34.16 127.05 31.5 127.05 28.5C127.05 25.34 127.69 22.56 128.97 20.16C130.25 17.76 132.01 15.88 134.25 14.52C136.49 13.16 139.07 12.48 141.99 12.48C145.27 12.48 147.97 13.18 150.09 14.58C152.21 15.98 153.77 17.86 154.77 20.22C155.81 22.58 156.33 25.22 156.33 28.14C156.33 28.54 156.31 29 156.27 29.52C156.23 30.04 156.17 30.44 156.09 30.72H134.37C134.61 32.32 135.19 33.66 136.11 34.74C137.03 35.78 138.19 36.58 139.59 37.14C140.99 37.66 142.55 37.92 144.27 37.92H152.49V43.8H144.27ZM134.31 26.04H149.43C149.39 25.28 149.27 24.52 149.07 23.76C148.91 23 148.63 22.28 148.23 21.6C147.87 20.92 147.39 20.34 146.79 19.86C146.23 19.34 145.55 18.94 144.75 18.66C143.95 18.34 143.03 18.18 141.99 18.18C140.79 18.18 139.73 18.42 138.81 18.9C137.89 19.34 137.11 19.94 136.47 20.7C135.83 21.42 135.33 22.26 134.97 23.22C134.65 24.14 134.43 25.08 134.31 26.04ZM176.334 43.8C173.174 43.8 170.354 43.12 167.874 41.76C165.394 40.4 163.434 38.58 161.994 36.3C160.554 33.98 159.834 31.38 159.834 28.5C159.834 25.62 160.554 23.04 161.994 20.76C163.434 18.44 165.394 16.6 167.874 15.24C170.354 13.88 173.174 13.2 176.334 13.2H180.054V19.08H176.214C174.374 19.08 172.734 19.5 171.294 20.34C169.894 21.14 168.794 22.26 167.994 23.7C167.194 25.14 166.794 26.74 166.794 28.5C166.794 30.26 167.194 31.86 167.994 33.3C168.794 34.74 169.894 35.88 171.294 36.72C172.734 37.52 174.374 37.92 176.214 37.92H180.054V43.8H176.334ZM184.867 43.8V4.76837e-05H191.767V16.26C193.007 14.94 194.447 13.98 196.087 13.38C197.727 12.78 199.387 12.48 201.067 12.48C203.867 12.48 206.247 13.08 208.207 14.28C210.207 15.44 211.727 17.06 212.767 19.14C213.807 21.18 214.327 23.52 214.327 26.16V43.8H207.487V26.22C207.487 24.66 207.107 23.3 206.347 22.14C205.627 20.94 204.667 20.02 203.467 19.38C202.307 18.7 201.007 18.36 199.567 18.36C198.207 18.36 196.927 18.68 195.727 19.32C194.527 19.96 193.567 20.86 192.847 22.02C192.127 23.18 191.767 24.5 191.767 25.98V43.8H184.867ZM256 43.8C252.56 43.8 249.46 43.28 246.7 42.24C243.94 41.16 241.6 39.66 239.68 37.74C237.76 35.82 236.28 33.6 235.24 31.08C234.2 28.52 233.68 25.76 233.68 22.8C233.68 19.84 234.2 17.1 235.24 14.58C236.28 12.02 237.76 9.78005 239.68 7.86005C241.64 5.94005 243.98 4.46005 246.7 3.42005C249.46 2.34005 252.56 1.80005 256 1.80005H262.48V10.2H256.24C254.36 10.2 252.64 10.52 251.08 11.16C249.56 11.8 248.24 12.7 247.12 13.86C246.04 14.98 245.2 16.3 244.6 17.82C244.04 19.34 243.76 21 243.76 22.8C243.76 24.6 244.04 26.26 244.6 27.78C245.2 29.3 246.04 30.64 247.12 31.8C248.24 32.92 249.56 33.8 251.08 34.44C252.64 35.08 254.36 35.4 256.24 35.4H262.48V43.8H256ZM266.798 43.8V4.76837e-05H276.098V43.8H266.798ZM297.01 44.52C293.85 44.52 291.01 43.82 288.49 42.42C285.97 41.02 283.97 39.1 282.49 36.66C281.05 34.22 280.33 31.48 280.33 28.44C280.33 25.36 281.05 22.62 282.49 20.22C283.97 17.78 285.97 15.86 288.49 14.46C291.01 13.02 293.85 12.3 297.01 12.3C300.17 12.3 302.99 13.02 305.47 14.46C307.99 15.86 309.97 17.78 311.41 20.22C312.89 22.62 313.63 25.36 313.63 28.44C313.63 31.48 312.89 34.22 311.41 36.66C309.97 39.1 307.99 41.02 305.47 42.42C302.95 43.82 300.13 44.52 297.01 44.52ZM297.01 36.42C298.49 36.42 299.77 36.06 300.85 35.34C301.93 34.62 302.77 33.66 303.37 32.46C303.97 31.26 304.27 29.9 304.27 28.38C304.27 26.9 303.97 25.56 303.37 24.36C302.77 23.16 301.93 22.2 300.85 21.48C299.77 20.76 298.49 20.4 297.01 20.4C295.53 20.4 294.23 20.76 293.11 21.48C292.03 22.2 291.19 23.16 290.59 24.36C289.99 25.56 289.69 26.9 289.69 28.38C289.69 29.9 289.99 31.26 290.59 32.46C291.19 33.66 292.03 34.62 293.11 35.34C294.23 36.06 295.53 36.42 297.01 36.42ZM333.313 44.52C330.153 44.52 327.413 43.92 325.093 42.72C322.813 41.48 321.053 39.82 319.813 37.74C318.573 35.62 317.953 33.28 317.953 30.72V13.02H327.253V30.48C327.253 31.56 327.513 32.56 328.033 33.48C328.553 34.36 329.253 35.08 330.133 35.64C331.053 36.16 332.093 36.42 333.253 36.42C334.373 36.42 335.373 36.16 336.253 35.64C337.173 35.08 337.893 34.36 338.413 33.48C338.933 32.56 339.193 31.56 339.193 30.48V13.02H348.493V30.72C348.493 33.28 347.893 35.62 346.693 37.74C345.493 39.82 343.753 41.48 341.473 42.72C339.233 43.92 336.513 44.52 333.313 44.52ZM369.313 44.52C366.753 44.52 364.433 44.12 362.353 43.32C360.313 42.52 358.593 41.38 357.193 39.9C355.793 38.38 354.713 36.6 353.953 34.56C353.193 32.52 352.813 30.3 352.813 27.9C352.813 24.78 353.433 22.06 354.673 19.74C355.953 17.42 357.693 15.6 359.893 14.28C362.133 12.96 364.693 12.3 367.573 12.3C368.813 12.3 369.973 12.46 371.053 12.78C372.173 13.1 373.173 13.58 374.053 14.22C374.973 14.82 375.733 15.54 376.333 16.38H376.513V4.76837e-05H385.813V27.84C385.813 31.2 385.133 34.14 383.773 36.66C382.413 39.18 380.493 41.12 378.013 42.48C375.573 43.84 372.673 44.52 369.313 44.52ZM369.313 36.48C370.753 36.48 371.993 36.14 373.033 35.46C374.113 34.74 374.933 33.78 375.493 32.58C376.053 31.34 376.333 29.96 376.333 28.44C376.333 26.92 376.053 25.56 375.493 24.36C374.933 23.16 374.113 22.22 373.033 21.54C371.993 20.82 370.753 20.46 369.313 20.46C367.913 20.46 366.673 20.82 365.593 21.54C364.513 22.22 363.693 23.16 363.133 24.36C362.573 25.56 362.293 26.92 362.293 28.44C362.293 29.96 362.573 31.34 363.133 32.58C363.693 33.78 364.513 34.74 365.593 35.46C366.673 36.14 367.913 36.48 369.313 36.48Z" fill="white"/>
</svg>
