<svg id="Layer_1" data-name="Layer 1" xmlns="http://www.w3.org/2000/svg" width="120" height="23" viewBox="0 0 120 23">
  <defs>
    <style>
      .cls-1 {
        fill: #00b67b;
      }

      .cls-2 {
        fill: #fff;
      }

      .cls-3 {
        fill: #dcdce5;
      }
    </style>
  </defs>
  <rect class="cls-1" x="1.02" y="0.24" width="21.95" height="22.55"/>
  <polygon class="cls-2" points="12.03 3.45 13.84 9.01 19.63 9.01 15.13 12.53 16.9 18.31 12.03 14.73 7.42 18.31 9.1 12.62 4.36 9.01 10.2 8.9 12.03 3.45"/>
  <polygon class="cls-1" points="15.17 12.51 12.03 14.73 15.58 13.87 15.17 12.51"/>
  <rect class="cls-1" x="24.64" y="0.24" width="21.95" height="22.55"/>
  <polygon class="cls-2" points="35.65 3.45 37.46 9.01 43.25 9.01 38.75 12.53 40.52 18.31 35.65 14.73 31.04 18.31 32.72 12.62 27.98 9.01 33.82 8.9 35.65 3.45"/>
  <polygon class="cls-1" points="38.79 12.51 35.65 14.73 39.2 13.87 38.79 12.51"/>
  <rect class="cls-1" x="48.83" y="0.24" width="21.95" height="22.55"/>
  <polygon class="cls-2" points="59.84 3.45 61.66 9.01 67.44 9.01 62.94 12.53 64.71 18.31 59.84 14.73 55.23 18.31 56.91 12.62 52.17 9.01 58.01 8.9 59.84 3.45"/>
  <polygon class="cls-1" points="62.98 12.51 59.84 14.73 63.4 13.87 62.98 12.51"/>
  <rect class="cls-1" x="72.81" y="0.24" width="21.95" height="22.55"/>
  <polygon class="cls-2" points="83.83 3.45 85.64 9.01 91.42 9.01 86.92 12.53 88.69 18.31 83.83 14.73 79.21 18.31 80.89 12.62 76.16 9.01 81.99 8.9 83.83 3.45"/>
  <polygon class="cls-1" points="86.96 12.51 83.83 14.73 87.38 13.87 86.96 12.51"/>
  <rect class="cls-3" x="96.64" y="0.24" width="21.95" height="22.55"/>
  <rect class="cls-1" x="96.64" y="0.24" width="21.95" height="22.55"/>
  <polygon class="cls-2" points="107.66 3.45 109.47 9.01 115.25 9.01 110.75 12.53 112.52 18.31 107.66 14.73 103.04 18.31 104.72 12.62 99.99 9.01 105.82 8.9 107.66 3.45"/>
  <polygon class="cls-1" points="110.79 12.51 107.66 14.73 111.21 13.87 110.79 12.51"/>
</svg>
